<?xml version="1.0" standalone="no"?><!DOCTYPE svg PUBLIC "-//W3C//DTD SVG 1.1//EN" "http://www.w3.org/Graphics/SVG/1.1/DTD/svg11.dtd">
<svg t="1557038708824" class="icon" style="" viewBox="0 0 1024 1024" version="1.1" xmlns="http://www.w3.org/2000/svg"
     p-id="2917"
     width="200" height="200"><defs><style type="text/css"></style></defs><path d="M960 944.8H64v-23c0-138.8 263.2-251.6 334.9-266 2.6-5.5 5.1-18.1 6-30.4-16.5-18.5-56.5-68.4-71.5-133.2-15.3-7.2-28.1-22.7-36.1-44.5-11.3-30.6-12.1-72.9 9.7-100.3 0-0.5-0.1-0.9-0.1-1.4-4.1-38.4-15.1-140.3 45-207.1 35.7-39.7 89.5-59.8 160.1-59.8S636.5 99.2 672.1 139c60 66.9 49 168.8 44.9 207.1 0 0.4-0.1 0.9-0.1 1.3 21.9 27.3 21 69.6 9.8 100.2-8 21.8-20.9 37.3-36.2 44.5-15 64.8-55 114.7-71.5 133.2 0.9 12.5 3.4 25 6 30.4 71.8 14.5 335 127.3 335 266.1v23z m-846.2-46h796.5c-12.3-38-53.8-80.2-119.9-121.2-69.2-43-147.1-72.4-176.8-77.2-36.3-5.8-40.6-60.3-40.8-83.5l-0.1-9.6 6.9-6.8c0.6-0.6 56.6-57.1 68.6-130.5l3.2-19.3h19.5c2.5-0.5 10.5-8.8 15.1-26.2 5.5-21.3 2.3-42.8-7.6-51.3l-8.6-7.3 0.5-11.3c0.1-3 0.6-7.6 1.2-13.4 3.9-35.9 12.9-119.9-33.4-171.5-26.6-29.6-69-44.6-126-44.6s-99.4 15-125.9 44.6c-46.3 51.5-37.3 135.6-33.5 171.5 0.6 5.8 1.1 10.4 1.2 13.5l0.5 11.3-8.6 7.3c-9.9 8.4-13.1 30-7.6 51.2 4.5 17.4 12.6 25.7 15.1 26.2h19.5l3.1 19.3c12 73.3 68 129.9 68.6 130.5l6.8 6.8v9.7c-0.2 23.2-4.6 77.7-40.8 83.5-29.6 4.7-107.5 34.2-176.7 77.2-66.2 41-107.7 83.2-120 121.1z" fill="#13227a" p-id="2918"></path></svg>